<svg width="120" height="100" viewBox="0 0 120 100" fill="none" xmlns="http://www.w3.org/2000/svg">
<g id="Frame 1" clip-path="url(#clip0_0_1)">
<rect width="120" height="100" fill="white"/>
<g id="light">
<path id="light1" opacity="0.7" d="M47 48.268C48.3333 49.0378 48.3333 50.9623 47 51.7321L12.5 71.6506C11.1667 72.4204 9.5 71.4582 9.5 69.9186V30.0814C9.5 28.5418 11.1667 27.5796 12.5 28.3494L47 48.268Z" fill="#43C4ED"/>
</g>
<g id="dark">
<path id="dark2" opacity="0.7" d="M62.5 48.6506C63.8333 49.4204 63.8333 51.3449 62.5 52.1147L28 72.0333C26.6667 72.8031 25 71.8409 25 70.3013V30.4641C25 28.9245 26.6667 27.9622 28 28.732L62.5 48.6506Z" fill="#6358FF"/>
<path id="dark1" opacity="0.7" d="M47 48.268C48.3333 49.0378 48.3333 50.9623 47 51.7321L12.5 71.6506C11.1667 72.4204 9.5 71.4582 9.5 69.9186V30.0814C9.5 28.5418 11.1667 27.5796 12.5 28.3494L47 48.268Z" fill="#6358FF"/>
</g>
</g>
<defs>
<clipPath id="clip0_0_1">
<rect width="120" height="100" fill="white"/>
</clipPath>
</defs>
</svg>
